# File created by Blade
# Date/Time:  Thu Sep 25 18:48:06 2014
# Frame Rate: 120.000 fps
#------------------------------------------------------
:FULLY-SPECIFIED
:DEGREES
1484
root 1.467527 32.956001 2.339344 9.484164 2.370376 0.625674
Spine -15.819457 9.171638 -0.634557
Head 19.536466 -12.493493 -3.179148
LeftShoulder -16.966938 5.045575 31.356444
LeftArm 162.437208 -27.960888 -109.785058
LeftForeArm -25.959326 -0.000000 155.095848
LeftHand -5.445990 -0.000000 -1.131095
LeftHandThumb1 -26.253704 0.000000 33.147579
RightShoulder -8.945710 5.203978 -10.646871
RightArm -135.754057 -72.218436 238.129163
RightForeArm -30.983291 0.000000 100.475702
RightHand 61.717557 -0.000000 -0.678384
RightHandThumb1 -24.326973 -0.000000 -32.862282
LeftUpLeg -2.393932 6.379837 2.338553
LeftLeg -1.187379 -0.000000 0.000000
LeftFoot -9.168808 4.325338 -13.058133
LeftToeBase 11.067210 -0.000000 -0.000000
RightUpLeg -1.954736 -13.429413 -6.375267
RightLeg 0.403351 -0.000000 -0.000000
RightFoot -5.771915 -2.829442 6.889298
RightToeBase 0.720794 -0.000000 -0.000000
1485
root 1.469023 32.954541 2.346432 9.453054 2.372667 0.624854
Spine -15.829961 9.187184 -0.642452
Head 19.557913 -12.523805 -3.162898
LeftShoulder -16.960690 5.054002 31.348833
LeftArm 162.439223 -27.943885 -109.766017
LeftForeArm -25.960159 -0.000000 155.086101
LeftHand -5.330814 -0.000000 -1.313197
LeftHandThumb1 -26.253704 0.000000 33.147579
RightShoulder -8.934519 5.228288 -10.669428
RightArm -135.373346 -72.256586 237.772549
RightForeArm -30.895005 0.000000 100.415900
RightHand 61.871328 -0.000000 -0.185646
RightHandThumb1 -24.326973 -0.000000 -32.862282
LeftUpLeg -2.346102 6.406539 2.342566
LeftLeg -1.202502 -0.000000 0.000000
LeftFoot -9.129224 4.245814 -13.223604
LeftToeBase 10.855235 -0.000000 -0.000000
RightUpLeg -1.909778 -13.434228 -6.388595
RightLeg 0.408289 -0.000000 -0.000000
RightFoot -5.811053 -2.795383 6.960849
RightToeBase 0.827610 -0.000000 -0.000000
1486
root 1.467144 32.954855 2.348141 9.453157 2.382521 0.622154
Spine -15.867218 9.187246 -0.660019
Head 19.587488 -12.519658 -3.135223
LeftShoulder -16.955952 5.052453 31.339884
LeftArm 162.440691 -27.953749 -109.744787
LeftForeArm -25.961633 -0.000000 155.079863
LeftHand -5.385955 -0.000000 -1.277361
LeftHandThumb1 -26.253704 0.000000 33.147579
RightShoulder -8.931669 5.223798 -10.647822
RightArm -135.379778 -72.259596 237.779433
RightForeArm -30.926078 -0.000000 100.351878
RightHand 61.896095 -0.000000 -0.404875
RightHandThumb1 -24.326973 -0.000000 -32.862282
LeftUpLeg -2.345095 6.362025 2.349278
LeftLeg -1.198258 -0.000000 0.000000
LeftFoot -9.186592 4.343687 -13.052398
LeftToeBase 11.084663 -0.000000 -0.000000
RightUpLeg -1.912665 -13.438353 -6.381079
RightLeg 0.420858 -0.000000 -0.000000
RightFoot -5.797948 -2.821083 6.908038
RightToeBase 0.774237 -0.000000 -0.000000
1487
root 1.467180 32.954114 2.351783 9.444151 2.399605 0.620956
Spine -15.894400 9.180664 -0.662196
Head 19.602397 -12.525046 -3.147786
LeftShoulder -16.937004 5.074028 31.329747
LeftArm 162.472814 -27.945981 -109.760048
LeftForeArm -25.962668 -0.000000 155.070820
LeftHand -5.353036 -0.000000 -1.265576
LeftHandThumb1 -26.253704 0.000000 33.147579
RightShoulder -8.943548 5.226283 -10.653421
RightArm -135.459338 -72.259822 237.869495
RightForeArm -31.029854 -0.000000 100.308355
RightHand 61.869048 -0.000000 -0.715672
RightHandThumb1 -24.326973 -0.000000 -32.862282
LeftUpLeg -2.335963 6.362009 2.352899
LeftLeg -1.188537 -0.000000 0.000000
LeftFoot -9.204700 4.332998 -13.046812
LeftToeBase 11.092499 -0.000000 -0.000000
RightUpLeg -1.897498 -13.456663 -6.381844
RightLeg 0.432113 -0.000000 -0.000000
RightFoot -5.815892 -2.809647 6.919296
RightToeBase 0.791016 -0.000000 -0.000000
1488
root 1.466879 32.953272 2.356676 9.424314 2.399418 0.617390
Spine -15.909173 9.197385 -0.669491
Head 19.616566 -12.535427 -3.145532
LeftShoulder -16.929735 5.072165 31.338323
LeftArm 162.458617 -27.945391 -109.764155
LeftForeArm -25.953126 -0.000000 155.087940
LeftHand -5.516753 -0.000000 -1.004031
LeftHandThumb1 -26.253704 0.000000 33.147579
RightShoulder -8.956595 5.196538 -10.641403
RightArm -135.574268 -72.270271 237.979431
RightForeArm -31.122103 -0.000000 100.264077
RightHand 61.864557 -0.000000 -1.058635
RightHandThumb1 -24.326973 -0.000000 -32.862282
LeftUpLeg -2.307028 6.376856 2.363485
LeftLeg -1.192915 -0.000000 0.000000
LeftFoot -9.153044 4.251362 -13.204880
LeftToeBase 10.883468 -0.000000 -0.000000
RightUpLeg -1.868655 -13.444062 -6.383532
RightLeg 0.430375 -0.000000 -0.000000
RightFoot -5.818888 -2.830004 6.884436
RightToeBase 0.780696 -0.000000 -0.000000
1489
root 1.466625 32.953654 2.360043 9.408419 2.414207 0.621909
Spine -15.927345 9.173606 -0.666538
Head 19.644791 -12.499949 -3.175807
LeftShoulder -16.936759 5.116642 31.310812
LeftArm 162.480375 -27.952545 -109.775346
LeftForeArm -25.895093 -0.000000 155.104375
LeftHand -5.522902 0.000000 -0.986179
LeftHandThumb1 -26.253704 0.000000 33.147579
RightShoulder -8.913378 5.196537 -10.621576
RightArm -135.550867 -72.279423 237.956399
RightForeArm -31.169800 -0.000000 100.184814
RightHand 61.909800 -0.000000 -1.302813
RightHandThumb1 -24.326973 -0.000000 -32.862282
LeftUpLeg -2.293059 6.382439 2.360937
LeftLeg -1.174000 -0.000000 0.000000
LeftFoot -9.194003 4.271021 -13.064912
LeftToeBase 11.038171 -0.000000 -0.000000
RightUpLeg -1.848278 -13.456760 -6.391312
RightLeg 0.443498 -0.000000 -0.000000
RightFoot -5.829587 -2.820082 6.903905
RightToeBase 0.792737 -0.000000 -0.000000
1490
root 1.466790 32.953082 2.363310 9.395160 2.422997 0.620714
Spine -15.947943 9.166488 -0.659636
Head 19.664589 -12.476214 -3.219396
LeftShoulder -16.940973 5.132592 31.294265
LeftArm 162.478603 -27.957802 -109.785812
LeftForeArm -25.904365 -0.000000 155.109051
LeftHand -5.402993 -0.000000 -1.092281
LeftHandThumb1 -26.253704 0.000000 33.147579
RightShoulder -8.907749 5.208420 -10.628123
RightArm -135.519635 -72.287266 237.928999
RightForeArm -31.261480 -0.000000 100.143242
RightHand 61.914356 0.000000 -1.547255
RightHandThumb1 -24.326973 -0.000000 -32.862282
LeftUpLeg -2.276910 6.365180 2.364656
LeftLeg -1.166915 -0.000000 0.000000
LeftFoot -9.222826 4.290760 -13.059791
LeftToeBase 11.063750 -0.000000 -0.000000
RightUpLeg -1.825173 -13.428104 -6.395682
RightLeg 0.443617 -0.000000 -0.000000
RightFoot -5.855490 -2.838640 6.936788
RightToeBase 0.820707 -0.000000 -0.000000
1491
root 1.466435 32.952193 2.366920 9.383075 2.428955 0.621097
Spine -15.970418 9.170005 -0.671630
Head 19.673755 -12.482186 -3.200099
LeftShoulder -16.946631 5.155359 31.294179
LeftArm 162.479496 -27.956012 -109.797425
LeftForeArm -25.850408 -0.000000 155.122006
LeftHand -5.473836 -0.000000 -1.041685
LeftHandThumb1 -26.253704 0.000000 33.147579
RightShoulder -8.910193 5.204425 -10.609901
RightArm -135.556177 -72.283511 237.961316
RightForeArm -31.324702 -0.000000 100.085714
RightHand 61.920729 -0.000000 -1.820930
RightHandThumb1 -24.326973 -0.000000 -32.862282
LeftUpLeg -2.265890 6.381997 2.366485
LeftLeg -1.153859 -0.000000 0.000000
LeftFoot -9.227307 4.273965 -13.056836
LeftToeBase 11.056403 -0.000000 -0.000000
RightUpLeg -1.808977 -13.439219 -6.397601
RightLeg 0.448102 -0.000000 -0.000000
RightFoot -5.849997 -2.842611 6.908009
RightToeBase 0.748488 -0.000000 -0.000000
1492
root 1.466060 32.951415 2.370806 9.372906 2.447818 0.621082
Spine -15.996038 9.162220 -0.674192
Head 19.687480 -12.480308 -3.209164
LeftShoulder -16.958100 5.173669 31.291691
LeftArm 162.460276 -27.932412 -109.807857
LeftForeArm -25.840838 -0.000000 155.136756
LeftHand -5.492208 -0.000000 -1.048460
LeftHandThumb1 -26.253704 0.000000 33.147579
RightShoulder -8.948922 5.180626 -10.573975
RightArm -136.047433 -72.190086 238.404519
RightForeArm -31.589272 -0.000000 100.056430
RightHand 61.700707 -0.000000 -3.057250
RightHandThumb1 -24.326973 -0.000000 -32.862282
LeftUpLeg -2.253739 6.379439 2.370436
LeftLeg -1.149654 -0.000000 0.000000
LeftFoot -9.246950 4.261656 -13.026830
LeftToeBase 11.095134 -0.000000 -0.000000
RightUpLeg -1.787888 -13.446273 -6.400321
RightLeg 0.453643 -0.000000 -0.000000
RightFoot -5.887769 -2.835449 6.967868
RightToeBase 0.838408 -0.000000 -0.000000
